<svg width="2073" height="385" viewBox="0 0 2073 385" fill="none" xmlns="http://www.w3.org/2000/svg">
<g clip-path="url(#clip0_164_13)">
<path d="M299.5 384.5H234.5V205.25C234.5 196.75 232.333 190.333 228 186C223.667 181.5 217.167 179.25 208.5 179.25H91.25V114.25H208.5C214.667 114.25 221.167 115 228 116.5C234.833 117.833 241.583 120 248.25 123C255.083 126 261.583 129.917 267.75 134.75C273.917 139.417 279.333 145.167 284 152C288.667 158.667 292.417 166.417 295.25 175.25C298.083 184.083 299.5 194.083 299.5 205.25V384.5ZM65 384.5H0V0H65V384.5Z" fill="#0085FF"/>
<path d="M653 293.25C653 304.417 651.583 314.5 648.75 323.5C645.917 332.333 642.167 340.167 637.5 347C632.833 353.667 627.417 359.417 621.25 364.25C615.083 368.917 608.583 372.75 601.75 375.75C595.083 378.75 588.25 381 581.25 382.5C574.417 383.833 567.917 384.5 561.75 384.5H444.5C435.5 384.5 425.667 382.917 415 379.75C404.333 376.583 394.417 371.417 385.25 364.25C376.25 356.917 368.667 347.5 362.5 336C356.5 324.333 353.5 310.083 353.5 293.25V205.25C353.5 188.583 356.5 174.5 362.5 163C368.667 151.333 376.25 141.917 385.25 134.75C394.417 127.417 404.333 122.167 415 119C425.667 115.833 435.5 114.25 444.5 114.25H561.75C578.417 114.25 592.583 117.25 604.25 123.25C615.917 129.25 625.333 136.833 632.5 146C639.667 155 644.833 164.833 648 175.5C651.333 186.167 653 196.083 653 205.25V293.25ZM588 205.75C588 196.75 585.75 190.083 581.25 185.75C576.75 181.417 570.25 179.25 561.75 179.25H445C436.333 179.25 429.75 181.5 425.25 186C420.75 190.333 418.5 196.75 418.5 205.25V293.25C418.5 301.75 420.75 308.25 425.25 312.75C429.75 317.25 436.333 319.5 445 319.5H561.75C570.583 319.5 577.167 317.25 581.5 312.75C585.833 308.25 588 301.75 588 293.25V205.75Z" fill="#0085FF"/>
<path d="M945 179.25H798.75C789.917 179.25 783.25 181.5 778.75 186C774.25 190.333 772 196.75 772 205.25V384.5H707V205.25C707 194.083 708.417 184.083 711.25 175.25C714.083 166.417 717.833 158.667 722.5 152C727.333 145.167 732.833 139.417 739 134.75C745.167 129.917 751.583 126 758.25 123C765.083 120 771.917 117.833 778.75 116.5C785.75 115 792.25 114.25 798.25 114.25H945V179.25Z" fill="#0085FF"/>
<path d="M1054 58.75H989V0H1054V58.75ZM1054 384.5H989V114.25H1054V384.5Z" fill="#0085FF"/>
<path d="M1372.5 134.25C1375.17 140.417 1375.83 146.667 1374.5 153C1373.33 159.333 1370.5 164.833 1366 169.5L1215.75 319.5H1372V384.5H1137.5C1130.83 384.5 1124.75 382.667 1119.25 379C1113.92 375.167 1109.92 370.333 1107.25 364.5C1104.75 358.333 1104.08 352.083 1105.25 345.75C1106.58 339.25 1109.67 333.583 1114.5 328.75L1264 179.25H1107.75V114.25H1342.75C1349.25 114.25 1355.17 116 1360.5 119.5C1366 123 1370 127.917 1372.5 134.25Z" fill="#0085FF"/>
<path d="M1717.5 293.25C1717.5 304.417 1716.08 314.5 1713.25 323.5C1710.42 332.333 1706.67 340.167 1702 347C1697.33 353.667 1691.92 359.417 1685.75 364.25C1679.58 368.917 1673.08 372.75 1666.25 375.75C1659.58 378.75 1652.75 381 1645.75 382.5C1638.92 383.833 1632.42 384.5 1626.25 384.5H1509C1500 384.5 1490.17 382.917 1479.5 379.75C1468.83 376.583 1458.92 371.417 1449.75 364.25C1440.75 356.917 1433.17 347.5 1427 336C1421 324.333 1418 310.083 1418 293.25V205.25C1418 188.583 1421 174.5 1427 163C1433.17 151.333 1440.75 141.917 1449.75 134.75C1458.92 127.417 1468.83 122.167 1479.5 119C1490.17 115.833 1500 114.25 1509 114.25H1626.25C1642.92 114.25 1657.08 117.25 1668.75 123.25C1680.42 129.25 1689.83 136.833 1697 146C1704.17 155 1709.33 164.833 1712.5 175.5C1715.83 186.167 1717.5 196.083 1717.5 205.25V293.25ZM1652.5 205.75C1652.5 196.75 1650.25 190.083 1645.75 185.75C1641.25 181.417 1634.75 179.25 1626.25 179.25H1509.5C1500.83 179.25 1494.25 181.5 1489.75 186C1485.25 190.333 1483 196.75 1483 205.25V293.25C1483 301.75 1485.25 308.25 1489.75 312.75C1494.25 317.25 1500.83 319.5 1509.5 319.5H1626.25C1635.08 319.5 1641.67 317.25 1646 312.75C1650.33 308.25 1652.5 301.75 1652.5 293.25V205.75Z" fill="#0085FF"/>
<path d="M2072.5 384.5H2007.5V234.5C2007.5 226 2006 218.417 2003 211.75C2000.17 204.917 1996.25 199.083 1991.25 194.25C1986.25 189.417 1980.33 185.75 1973.5 183.25C1966.83 180.583 1959.58 179.25 1951.75 179.25H1838V384.5H1773V146.5C1773 142 1773.83 137.833 1775.5 134C1777.17 130 1779.5 126.583 1782.5 123.75C1785.5 120.75 1789 118.417 1793 116.75C1797 115.083 1801.25 114.25 1805.75 114.25H1952.25C1960.42 114.25 1969 115.167 1978 117C1987.17 118.833 1996.17 121.833 2005 126C2014 130 2022.5 135.167 2030.5 141.5C2038.67 147.667 2045.83 155.25 2052 164.25C2058.33 173.083 2063.33 183.333 2067 195C2070.67 206.667 2072.5 219.833 2072.5 234.5V384.5Z" fill="#0085FF"/>
</g>
<defs>
<clipPath id="clip0_164_13">
<rect width="2072.5" height="384.5" fill="white"/>
</clipPath>
</defs>
</svg>
